<svg width="725" height="30" viewBox="0 0 725 30" fill="none" xmlns="http://www.w3.org/2000/svg">
<path d="M254 10C254 4.47715 259.348 0 265.944 0H328.056C334.652 0 340 4.47715 340 10V20C340 25.5228 334.652 30 328.056 30H265.944C259.348 30 254 25.5228 254 20V10Z" fill="#1E0E62"/>
<path d="M1 10C1 5.18811 5.72415 1 11.9388 1H73.0612C79.2758 1 84 5.18811 84 10V20C84 24.8119 79.2759 29 73.0612 29H11.9388C5.72415 29 1 24.8119 1 20V10Z" fill="white" stroke="#EBEAED" stroke-width="2"/>
<path d="M637 10C637 4.47715 642.38 0 649.017 0H712.983C719.62 0 725 4.47715 725 10V20C725 25.5228 719.62 30 712.983 30H649.017C642.38 30 637 25.5228 637 20V10Z" fill="#151439" fill-opacity="0.4"/>
<path d="M127 10C127 4.47715 132.345 0 138.939 0H200.061C206.655 0 212 4.47715 212 10V20C212 25.5228 206.655 30 200.061 30H138.939C132.345 30 127 25.5228 127 20V10Z" fill="#482BE7"/>
<path d="M383 10C383 4.47715 388.408 0 395.079 0H456.921C463.592 0 469 4.47715 469 10V20C469 25.5228 463.592 30 456.921 30H395.079C388.408 30 383 25.5228 383 20V10Z" fill="#25DAC5"/>
<path d="M510 10C510 4.47715 515.408 0 522.079 0H583.921C590.592 0 596 4.47715 596 10V20C596 25.5228 590.592 30 583.921 30H522.079C515.408 30 510 25.5228 510 20V10Z" fill="#E93A7D"/>
<path d="M9.05682 20V11.2727H12.108C12.7159 11.2727 13.2173 11.3778 13.6122 11.5881C14.0071 11.7955 14.3011 12.0753 14.4943 12.4276C14.6875 12.777 14.7841 13.1648 14.7841 13.5909C14.7841 13.9659 14.7173 14.2756 14.5838 14.5199C14.4531 14.7642 14.2798 14.9574 14.0639 15.0994C13.8509 15.2415 13.6193 15.3466 13.3693 15.4148V15.5C13.6364 15.517 13.9048 15.6108 14.1747 15.7812C14.4446 15.9517 14.6705 16.196 14.8523 16.5142C15.0341 16.8324 15.125 17.2216 15.125 17.6818C15.125 18.1193 15.0256 18.5128 14.8267 18.8622C14.6278 19.2116 14.3139 19.4886 13.8849 19.6932C13.456 19.8977 12.8977 20 12.2102 20H9.05682ZM10.1136 19.0625H12.2102C12.9006 19.0625 13.3906 18.929 13.6804 18.6619C13.973 18.392 14.1193 18.0653 14.1193 17.6818C14.1193 17.3864 14.044 17.1136 13.8935 16.8636C13.7429 16.6108 13.5284 16.4091 13.25 16.2585C12.9716 16.1051 12.642 16.0284 12.2614 16.0284H10.1136V19.0625ZM10.1136 15.108H12.0739C12.392 15.108 12.679 15.0455 12.9347 14.9205C13.1932 14.7955 13.3977 14.6193 13.5483 14.392C13.7017 14.1648 13.7784 13.8977 13.7784 13.5909C13.7784 13.2074 13.6449 12.8821 13.3778 12.6151C13.1108 12.3452 12.6875 12.2102 12.108 12.2102H10.1136V15.108ZM18.6513 20.1534C18.2365 20.1534 17.8601 20.0753 17.522 19.919C17.1839 19.7599 16.9155 19.5312 16.7166 19.233C16.5178 18.9318 16.4183 18.5682 16.4183 18.142C16.4183 17.767 16.4922 17.4631 16.6399 17.2301C16.7876 16.9943 16.9851 16.8097 17.2322 16.6761C17.4794 16.5426 17.7521 16.4432 18.0504 16.3778C18.3516 16.3097 18.6541 16.2557 18.9581 16.2159C19.3558 16.1648 19.6783 16.1264 19.9254 16.1009C20.1754 16.0724 20.3572 16.0256 20.4709 15.9602C20.5874 15.8949 20.6456 15.7812 20.6456 15.6193V15.5852C20.6456 15.1648 20.5305 14.8381 20.3004 14.6051C20.0732 14.3722 19.728 14.2557 19.2649 14.2557C18.7848 14.2557 18.4084 14.3608 18.1357 14.571C17.8629 14.7812 17.6712 15.0057 17.5604 15.2443L16.6058 14.9034C16.7763 14.5057 17.0036 14.196 17.2876 13.9744C17.5746 13.75 17.8871 13.5937 18.2251 13.5057C18.5661 13.4148 18.9013 13.3693 19.2308 13.3693C19.4411 13.3693 19.6825 13.3949 19.9553 13.446C20.2308 13.4943 20.4964 13.5952 20.7521 13.7486C21.0107 13.902 21.2251 14.1335 21.3956 14.4432C21.5661 14.7528 21.6513 15.1676 21.6513 15.6875V20H20.6456V19.1136H20.5945C20.5263 19.2557 20.4126 19.4077 20.2536 19.5696C20.0945 19.7315 19.8828 19.8693 19.6186 19.983C19.3544 20.0966 19.032 20.1534 18.6513 20.1534ZM18.8047 19.25C19.2024 19.25 19.5376 19.1719 19.8104 19.0156C20.0859 18.8594 20.2933 18.6577 20.4325 18.4105C20.5746 18.1634 20.6456 17.9034 20.6456 17.6307V16.7102C20.603 16.7614 20.5092 16.8082 20.3643 16.8509C20.2223 16.8906 20.0575 16.9261 19.87 16.9574C19.6854 16.9858 19.505 17.0114 19.3288 17.0341C19.1555 17.054 19.0149 17.071 18.907 17.0852C18.6456 17.1193 18.4013 17.1747 18.174 17.2514C17.9496 17.3253 17.7678 17.4375 17.6286 17.5881C17.4922 17.7358 17.424 17.9375 17.424 18.1932C17.424 18.5426 17.5533 18.8068 17.8118 18.9858C18.0732 19.1619 18.4041 19.25 18.8047 19.25ZM26.146 20.1364C25.5323 20.1364 25.0039 19.9915 24.5607 19.7017C24.1175 19.4119 23.7766 19.0128 23.538 18.5043C23.2994 17.9957 23.18 17.4148 23.18 16.7614C23.18 16.0966 23.3022 15.5099 23.5465 15.0014C23.7937 14.4901 24.1374 14.0909 24.5778 13.804C25.021 13.5142 25.538 13.3693 26.1289 13.3693C26.5891 13.3693 27.0039 13.4545 27.3732 13.625C27.7425 13.7955 28.0451 14.0341 28.2809 14.3409C28.5167 14.6477 28.663 15.0057 28.7198 15.4148H27.7141C27.6374 15.1165 27.467 14.8523 27.2028 14.6222C26.9414 14.3892 26.5891 14.2727 26.146 14.2727C25.7539 14.2727 25.4102 14.375 25.1147 14.5795C24.8221 14.7812 24.5934 15.0668 24.4286 15.4361C24.2667 15.8026 24.1857 16.233 24.1857 16.7273C24.1857 17.233 24.2653 17.6733 24.4244 18.0483C24.5863 18.4233 24.8136 18.7145 25.1062 18.9219C25.4016 19.1293 25.7482 19.233 26.146 19.233C26.4073 19.233 26.6445 19.1875 26.8576 19.0966C27.0707 19.0057 27.2511 18.875 27.3988 18.7045C27.5465 18.5341 27.6516 18.3295 27.7141 18.0909H28.7198C28.663 18.4773 28.5224 18.8253 28.2979 19.1349C28.0763 19.4418 27.7823 19.6861 27.4158 19.8679C27.0522 20.0469 26.6289 20.1364 26.146 20.1364ZM31.1275 17.6136L31.1104 16.3693H31.315L34.1786 13.4545H35.4229L32.3718 16.5398H32.2866L31.1275 17.6136ZM30.19 20V11.2727H31.1957V20H30.19ZM34.3491 20L31.7923 16.7614L32.5082 16.0625L35.6275 20H34.3491ZM39.0898 22.5909C38.604 22.5909 38.1864 22.5284 37.837 22.4034C37.4876 22.2812 37.1964 22.1193 36.9634 21.9176C36.7333 21.7188 36.5501 21.5057 36.4137 21.2784L37.2148 20.7159C37.3058 20.8352 37.4208 20.9716 37.56 21.125C37.6992 21.2812 37.8896 21.4162 38.131 21.5298C38.3754 21.6463 38.695 21.7045 39.0898 21.7045C39.6183 21.7045 40.0543 21.5767 40.3981 21.321C40.7418 21.0653 40.9137 20.6648 40.9137 20.1193V18.7898H40.8285C40.7546 18.9091 40.6495 19.0568 40.5131 19.233C40.3796 19.4062 40.1864 19.5611 39.9336 19.6974C39.6836 19.831 39.3455 19.8977 38.9194 19.8977C38.391 19.8977 37.9165 19.7727 37.4961 19.5227C37.0785 19.2727 36.7475 18.9091 36.5032 18.4318C36.2617 17.9545 36.141 17.375 36.141 16.6932C36.141 16.0227 36.2589 15.4389 36.4947 14.9418C36.7305 14.4418 37.0586 14.0554 37.479 13.7827C37.8995 13.5071 38.3853 13.3693 38.9364 13.3693C39.3626 13.3693 39.7006 13.4403 39.9506 13.5824C40.2035 13.7216 40.3967 13.8807 40.5302 14.0597C40.6665 14.2358 40.7717 14.3807 40.8455 14.4943H40.9478V13.4545H41.9194V20.1875C41.9194 20.75 41.7915 21.2074 41.5359 21.5597C41.283 21.9148 40.9421 22.1747 40.5131 22.3395C40.087 22.5071 39.6126 22.5909 39.0898 22.5909ZM39.0558 18.9943C39.4592 18.9943 39.8001 18.902 40.0785 18.7173C40.3569 18.5327 40.5685 18.267 40.7134 17.9205C40.8583 17.5739 40.9308 17.1591 40.9308 16.6761C40.9308 16.2045 40.8597 15.7884 40.7177 15.4276C40.5756 15.0668 40.3654 14.7841 40.087 14.5795C39.8086 14.375 39.4648 14.2727 39.0558 14.2727C38.6296 14.2727 38.2745 14.3807 37.9904 14.5966C37.7092 14.8125 37.4975 15.1023 37.3555 15.4659C37.2163 15.8295 37.1467 16.233 37.1467 16.6761C37.1467 17.1307 37.2177 17.5327 37.3597 17.8821C37.5046 18.2287 37.7177 18.5014 37.9989 18.7003C38.283 18.8963 38.6353 18.9943 39.0558 18.9943ZM43.7603 20V13.4545H44.7319V14.4432H44.8001C44.9194 14.1193 45.1353 13.8565 45.4478 13.6548C45.7603 13.4531 46.1126 13.3523 46.5046 13.3523C46.5785 13.3523 46.6708 13.3537 46.7816 13.3565C46.8924 13.3594 46.9762 13.3636 47.033 13.3693V14.392C46.9989 14.3835 46.9208 14.3707 46.7987 14.3537C46.6793 14.3338 46.5529 14.3239 46.4194 14.3239C46.1012 14.3239 45.8171 14.3906 45.5671 14.5241C45.32 14.6548 45.1239 14.8366 44.979 15.0696C44.837 15.2997 44.766 15.5625 44.766 15.858V20H43.7603ZM50.685 20.1364C50.0941 20.1364 49.5756 19.9957 49.1296 19.7145C48.6864 19.4332 48.3398 19.0398 48.0898 18.5341C47.8427 18.0284 47.7191 17.4375 47.7191 16.7614C47.7191 16.0795 47.8427 15.4844 48.0898 14.9759C48.3398 14.4673 48.6864 14.0724 49.1296 13.7912C49.5756 13.5099 50.0941 13.3693 50.685 13.3693C51.2759 13.3693 51.793 13.5099 52.2362 13.7912C52.6822 14.0724 53.0288 14.4673 53.2759 14.9759C53.5259 15.4844 53.6509 16.0795 53.6509 16.7614C53.6509 17.4375 53.5259 18.0284 53.2759 18.5341C53.0288 19.0398 52.6822 19.4332 52.2362 19.7145C51.793 19.9957 51.2759 20.1364 50.685 20.1364ZM50.685 19.233C51.1339 19.233 51.5032 19.1179 51.793 18.8878C52.0827 18.6577 52.2972 18.3551 52.4364 17.9801C52.5756 17.6051 52.6452 17.1989 52.6452 16.7614C52.6452 16.3239 52.5756 15.9162 52.4364 15.5384C52.2972 15.1605 52.0827 14.8551 51.793 14.6222C51.5032 14.3892 51.1339 14.2727 50.685 14.2727C50.2362 14.2727 49.8668 14.3892 49.5771 14.6222C49.2873 14.8551 49.0728 15.1605 48.9336 15.5384C48.7944 15.9162 48.7248 16.3239 48.7248 16.7614C48.7248 17.1989 48.7944 17.6051 48.9336 17.9801C49.0728 18.3551 49.2873 18.6577 49.5771 18.8878C49.8668 19.1179 50.2362 19.233 50.685 19.233ZM59.3111 17.3239V13.4545H60.3168V20H59.3111V18.892H59.2429C59.0895 19.2244 58.8509 19.5071 58.527 19.7401C58.2031 19.9702 57.794 20.0852 57.2997 20.0852C56.8906 20.0852 56.527 19.9957 56.2088 19.8168C55.8906 19.6349 55.6406 19.3622 55.4588 18.9986C55.277 18.6321 55.1861 18.1705 55.1861 17.6136V13.4545H56.1918V17.5455C56.1918 18.0227 56.3253 18.4034 56.5923 18.6875C56.8622 18.9716 57.206 19.1136 57.6236 19.1136C57.8736 19.1136 58.1278 19.0497 58.3864 18.9219C58.6477 18.794 58.8665 18.598 59.0426 18.3338C59.2216 18.0696 59.3111 17.733 59.3111 17.3239ZM63.1644 16.0625V20H62.1587V13.4545H63.1303V14.4773H63.2156C63.369 14.1449 63.6019 13.8778 63.9144 13.6761C64.2269 13.4716 64.6303 13.3693 65.1246 13.3693C65.5678 13.3693 65.9556 13.4602 66.288 13.642C66.6204 13.821 66.8789 14.0938 67.0636 14.4602C67.2482 14.8239 67.3406 15.2841 67.3406 15.8409V20H66.3349V15.9091C66.3349 15.3949 66.2013 14.9943 65.9343 14.7074C65.6673 14.4176 65.3008 14.2727 64.8349 14.2727C64.5138 14.2727 64.2269 14.3423 63.9741 14.4815C63.7241 14.6207 63.5266 14.8239 63.3817 15.0909C63.2369 15.358 63.1644 15.6818 63.1644 16.0625ZM71.6499 20.1364C71.1044 20.1364 70.6229 19.9986 70.2053 19.723C69.7876 19.4446 69.4609 19.0526 69.2251 18.5469C68.9893 18.0384 68.8714 17.4375 68.8714 16.7443C68.8714 16.0568 68.9893 15.4602 69.2251 14.9545C69.4609 14.4489 69.7891 14.0582 70.2095 13.7827C70.63 13.5071 71.1158 13.3693 71.6669 13.3693C72.093 13.3693 72.4297 13.4403 72.6768 13.5824C72.9268 13.7216 73.1172 13.8807 73.2479 14.0597C73.3814 14.2358 73.4851 14.3807 73.5589 14.4943H73.6442V11.2727H74.6499V20H73.6783V18.9943H73.5589C73.4851 19.1136 73.38 19.2642 73.2436 19.446C73.1072 19.625 72.9126 19.7855 72.6598 19.9276C72.407 20.0668 72.0703 20.1364 71.6499 20.1364ZM71.7862 19.233C72.1896 19.233 72.5305 19.1278 72.8089 18.9176C73.0874 18.7045 73.299 18.4105 73.4439 18.0355C73.5888 17.6577 73.6612 17.2216 73.6612 16.7273C73.6612 16.2386 73.5902 15.8111 73.4482 15.4446C73.3061 15.0753 73.0959 14.7884 72.8175 14.5838C72.5391 14.3764 72.1953 14.2727 71.7862 14.2727C71.3601 14.2727 71.005 14.3821 70.7209 14.6009C70.4396 14.8168 70.228 15.1108 70.0859 15.483C69.9467 15.8523 69.8771 16.267 69.8771 16.7273C69.8771 17.1932 69.9482 17.6165 70.0902 17.9972C70.2351 18.375 70.4482 18.6761 70.7294 18.9006C71.0135 19.1222 71.3658 19.233 71.7862 19.233Z" fill="black"/>
<path d="M148.057 20V11.2727H151.006C151.69 11.2727 152.25 11.3963 152.685 11.6435C153.122 11.8878 153.446 12.2188 153.656 12.6364C153.866 13.054 153.972 13.5199 153.972 14.0341C153.972 14.5483 153.866 15.0156 153.656 15.4361C153.449 15.8565 153.128 16.1918 152.693 16.4418C152.259 16.6889 151.702 16.8125 151.023 16.8125H148.909V15.875H150.989C151.457 15.875 151.834 15.794 152.118 15.6321C152.402 15.4702 152.608 15.2514 152.736 14.9759C152.866 14.6974 152.932 14.3835 152.932 14.0341C152.932 13.6847 152.866 13.3722 152.736 13.0966C152.608 12.821 152.401 12.6051 152.114 12.4489C151.827 12.2898 151.446 12.2102 150.972 12.2102H149.114V20H148.057ZM155.538 20V13.4545H156.509V14.4432H156.577C156.697 14.1193 156.913 13.8565 157.225 13.6548C157.538 13.4531 157.89 13.3523 158.282 13.3523C158.356 13.3523 158.448 13.3537 158.559 13.3565C158.67 13.3594 158.754 13.3636 158.81 13.3693V14.392C158.776 14.3835 158.698 14.3707 158.576 14.3537C158.457 14.3338 158.33 14.3239 158.197 14.3239C157.879 14.3239 157.594 14.3906 157.344 14.5241C157.097 14.6548 156.901 14.8366 156.756 15.0696C156.614 15.2997 156.543 15.5625 156.543 15.858V20H155.538ZM160.002 20V13.4545H161.008V20H160.002ZM160.514 12.3636C160.318 12.3636 160.149 12.2969 160.007 12.1634C159.868 12.0298 159.798 11.8693 159.798 11.6818C159.798 11.4943 159.868 11.3338 160.007 11.2003C160.149 11.0668 160.318 11 160.514 11C160.71 11 160.877 11.0668 161.017 11.2003C161.159 11.3338 161.23 11.4943 161.23 11.6818C161.23 11.8693 161.159 12.0298 161.017 12.1634C160.877 12.2969 160.71 12.3636 160.514 12.3636ZM162.85 20V13.4545H163.822V14.4773H163.907C164.043 14.1278 164.263 13.8565 164.567 13.6634C164.871 13.4673 165.237 13.3693 165.663 13.3693C166.094 13.3693 166.454 13.4673 166.741 13.6634C167.031 13.8565 167.256 14.1278 167.418 14.4773H167.487C167.654 14.1392 167.906 13.8707 168.241 13.6719C168.576 13.4702 168.978 13.3693 169.447 13.3693C170.032 13.3693 170.511 13.5526 170.883 13.919C171.255 14.2827 171.441 14.8494 171.441 15.6193V20H170.435V15.6193C170.435 15.1364 170.303 14.7912 170.039 14.5838C169.775 14.3764 169.464 14.2727 169.106 14.2727C168.646 14.2727 168.289 14.4119 168.036 14.6903C167.783 14.9659 167.657 15.3153 167.657 15.7386V20H166.634V15.517C166.634 15.1449 166.513 14.8452 166.272 14.6179C166.031 14.3878 165.719 14.2727 165.339 14.2727C165.077 14.2727 164.833 14.3423 164.606 14.4815C164.381 14.6207 164.2 14.8139 164.06 15.0611C163.924 15.3054 163.856 15.5881 163.856 15.9091V20H162.85ZM175.206 20.1534C174.791 20.1534 174.415 20.0753 174.077 19.919C173.739 19.7599 173.47 19.5312 173.271 19.233C173.072 18.9318 172.973 18.5682 172.973 18.142C172.973 17.767 173.047 17.4631 173.195 17.2301C173.342 16.9943 173.54 16.8097 173.787 16.6761C174.034 16.5426 174.307 16.4432 174.605 16.3778C174.906 16.3097 175.209 16.2557 175.513 16.2159C175.911 16.1648 176.233 16.1264 176.48 16.1009C176.73 16.0724 176.912 16.0256 177.026 15.9602C177.142 15.8949 177.2 15.7812 177.2 15.6193V15.5852C177.2 15.1648 177.085 14.8381 176.855 14.6051C176.628 14.3722 176.283 14.2557 175.82 14.2557C175.339 14.2557 174.963 14.3608 174.69 14.571C174.418 14.7812 174.226 15.0057 174.115 15.2443L173.161 14.9034C173.331 14.5057 173.558 14.196 173.842 13.9744C174.129 13.75 174.442 13.5937 174.78 13.5057C175.121 13.4148 175.456 13.3693 175.786 13.3693C175.996 13.3693 176.237 13.3949 176.51 13.446C176.786 13.4943 177.051 13.5952 177.307 13.7486C177.565 13.902 177.78 14.1335 177.95 14.4432C178.121 14.7528 178.206 15.1676 178.206 15.6875V20H177.2V19.1136H177.149C177.081 19.2557 176.967 19.4077 176.808 19.5696C176.649 19.7315 176.438 19.8693 176.173 19.983C175.909 20.0966 175.587 20.1534 175.206 20.1534ZM175.359 19.25C175.757 19.25 176.092 19.1719 176.365 19.0156C176.641 18.8594 176.848 18.6577 176.987 18.4105C177.129 18.1634 177.2 17.9034 177.2 17.6307V16.7102C177.158 16.7614 177.064 16.8082 176.919 16.8509C176.777 16.8906 176.612 16.9261 176.425 16.9574C176.24 16.9858 176.06 17.0114 175.884 17.0341C175.71 17.054 175.57 17.071 175.462 17.0852C175.2 17.1193 174.956 17.1747 174.729 17.2514C174.504 17.3253 174.322 17.4375 174.183 17.5881C174.047 17.7358 173.979 17.9375 173.979 18.1932C173.979 18.5426 174.108 18.8068 174.366 18.9858C174.628 19.1619 174.959 19.25 175.359 19.25ZM180.042 20V13.4545H181.013V14.4432H181.081C181.201 14.1193 181.417 13.8565 181.729 13.6548C182.042 13.4531 182.394 13.3523 182.786 13.3523C182.86 13.3523 182.952 13.3537 183.063 13.3565C183.174 13.3594 183.257 13.3636 183.314 13.3693V14.392C183.28 14.3835 183.202 14.3707 183.08 14.3537C182.961 14.3338 182.834 14.3239 182.701 14.3239C182.382 14.3239 182.098 14.3906 181.848 14.5241C181.601 14.6548 181.405 14.8366 181.26 15.0696C181.118 15.2997 181.047 15.5625 181.047 15.858V20H180.042ZM185.353 22.4545C185.183 22.4545 185.031 22.4403 184.897 22.4119C184.764 22.3864 184.672 22.3608 184.62 22.3352L184.876 21.4489C185.12 21.5114 185.336 21.5341 185.524 21.517C185.711 21.5 185.877 21.4162 186.022 21.2656C186.17 21.1179 186.305 20.8778 186.427 20.5455L186.615 20.0341L184.194 13.4545H185.285L187.092 18.6705H187.16L188.967 13.4545H190.058L187.279 20.9545C187.154 21.2926 187 21.5724 186.815 21.794C186.63 22.0185 186.416 22.1847 186.172 22.2926C185.93 22.4006 185.657 22.4545 185.353 22.4545Z" fill="white"/>
<path d="M274.057 20V11.2727H275.114V15.1591H279.767V11.2727H280.824V20H279.767V16.0966H275.114V20H274.057ZM285.548 20.1364C284.917 20.1364 284.373 19.9972 283.915 19.7188C283.461 19.4375 283.11 19.0455 282.863 18.5426C282.619 18.0369 282.496 17.4489 282.496 16.7784C282.496 16.108 282.619 15.517 282.863 15.0057C283.11 14.4915 283.454 14.0909 283.894 13.804C284.337 13.5142 284.854 13.3693 285.445 13.3693C285.786 13.3693 286.123 13.4261 286.455 13.5398C286.788 13.6534 287.09 13.8381 287.363 14.0938C287.636 14.3466 287.853 14.6818 288.015 15.0994C288.177 15.517 288.258 16.0312 288.258 16.642V17.0682H283.212V16.1989H287.235C287.235 15.8295 287.161 15.5 287.013 15.2102C286.869 14.9205 286.661 14.6918 286.391 14.5241C286.124 14.3565 285.809 14.2727 285.445 14.2727C285.045 14.2727 284.698 14.3722 284.406 14.571C284.116 14.767 283.893 15.0227 283.737 15.3381C283.58 15.6534 283.502 15.9915 283.502 16.3523V16.9318C283.502 17.4261 283.587 17.8452 283.758 18.1889C283.931 18.5298 284.171 18.7898 284.478 18.9688C284.785 19.1449 285.141 19.233 285.548 19.233C285.812 19.233 286.05 19.196 286.263 19.1222C286.479 19.0455 286.665 18.9318 286.822 18.7812C286.978 18.6278 287.099 18.4375 287.184 18.2102L288.156 18.483C288.053 18.8125 287.881 19.1023 287.64 19.3523C287.398 19.5994 287.1 19.7926 286.745 19.9318C286.39 20.0682 285.991 20.1364 285.548 20.1364ZM291.714 20.1534C291.299 20.1534 290.923 20.0753 290.585 19.919C290.246 19.7599 289.978 19.5312 289.779 19.233C289.58 18.9318 289.481 18.5682 289.481 18.142C289.481 17.767 289.555 17.4631 289.702 17.2301C289.85 16.9943 290.048 16.8097 290.295 16.6761C290.542 16.5426 290.815 16.4432 291.113 16.3778C291.414 16.3097 291.717 16.2557 292.021 16.2159C292.418 16.1648 292.741 16.1264 292.988 16.1009C293.238 16.0724 293.42 16.0256 293.533 15.9602C293.65 15.8949 293.708 15.7812 293.708 15.6193V15.5852C293.708 15.1648 293.593 14.8381 293.363 14.6051C293.136 14.3722 292.79 14.2557 292.327 14.2557C291.847 14.2557 291.471 14.3608 291.198 14.571C290.925 14.7812 290.734 15.0057 290.623 15.2443L289.668 14.9034C289.839 14.5057 290.066 14.196 290.35 13.9744C290.637 13.75 290.95 13.5937 291.288 13.5057C291.629 13.4148 291.964 13.3693 292.293 13.3693C292.504 13.3693 292.745 13.3949 293.018 13.446C293.293 13.4943 293.559 13.5952 293.815 13.7486C294.073 13.902 294.288 14.1335 294.458 14.4432C294.629 14.7528 294.714 15.1676 294.714 15.6875V20H293.708V19.1136H293.657C293.589 19.2557 293.475 19.4077 293.316 19.5696C293.157 19.7315 292.945 19.8693 292.681 19.983C292.417 20.0966 292.094 20.1534 291.714 20.1534ZM291.867 19.25C292.265 19.25 292.6 19.1719 292.873 19.0156C293.148 18.8594 293.356 18.6577 293.495 18.4105C293.637 18.1634 293.708 17.9034 293.708 17.6307V16.7102C293.665 16.7614 293.572 16.8082 293.427 16.8509C293.285 16.8906 293.12 16.9261 292.933 16.9574C292.748 16.9858 292.567 17.0114 292.391 17.0341C292.218 17.054 292.077 17.071 291.969 17.0852C291.708 17.1193 291.464 17.1747 291.237 17.2514C291.012 17.3253 290.83 17.4375 290.691 17.5881C290.555 17.7358 290.487 17.9375 290.487 18.1932C290.487 18.5426 290.616 18.8068 290.874 18.9858C291.136 19.1619 291.467 19.25 291.867 19.25ZM299.021 20.1364C298.475 20.1364 297.994 19.9986 297.576 19.723C297.159 19.4446 296.832 19.0526 296.596 18.5469C296.36 18.0384 296.243 17.4375 296.243 16.7443C296.243 16.0568 296.36 15.4602 296.596 14.9545C296.832 14.4489 297.16 14.0582 297.581 13.7827C298.001 13.5071 298.487 13.3693 299.038 13.3693C299.464 13.3693 299.801 13.4403 300.048 13.5824C300.298 13.7216 300.488 13.8807 300.619 14.0597C300.752 14.2358 300.856 14.3807 300.93 14.4943H301.015V11.2727H302.021V20H301.049V18.9943H300.93C300.856 19.1136 300.751 19.2642 300.615 19.446C300.478 19.625 300.284 19.7855 300.031 19.9276C299.778 20.0668 299.441 20.1364 299.021 20.1364ZM299.157 19.233C299.561 19.233 299.902 19.1278 300.18 18.9176C300.458 18.7045 300.67 18.4105 300.815 18.0355C300.96 17.6577 301.032 17.2216 301.032 16.7273C301.032 16.2386 300.961 15.8111 300.819 15.4446C300.677 15.0753 300.467 14.7884 300.189 14.5838C299.91 14.3764 299.566 14.2727 299.157 14.2727C298.731 14.2727 298.376 14.3821 298.092 14.6009C297.811 14.8168 297.599 15.1108 297.457 15.483C297.318 15.8523 297.248 16.267 297.248 16.7273C297.248 17.1932 297.319 17.6165 297.461 17.9972C297.606 18.375 297.819 18.6761 298.1 18.9006C298.385 19.1222 298.737 19.233 299.157 19.233ZM304.002 20V13.4545H305.008V20H304.002ZM304.514 12.3636C304.318 12.3636 304.149 12.2969 304.007 12.1634C303.868 12.0298 303.798 11.8693 303.798 11.6818C303.798 11.4943 303.868 11.3338 304.007 11.2003C304.149 11.0668 304.318 11 304.514 11C304.71 11 304.877 11.0668 305.017 11.2003C305.159 11.3338 305.23 11.4943 305.23 11.6818C305.23 11.8693 305.159 12.0298 305.017 12.1634C304.877 12.2969 304.71 12.3636 304.514 12.3636ZM307.856 16.0625V20H306.85V13.4545H307.822V14.4773H307.907C308.06 14.1449 308.293 13.8778 308.606 13.6761C308.918 13.4716 309.322 13.3693 309.816 13.3693C310.259 13.3693 310.647 13.4602 310.979 13.642C311.312 13.821 311.57 14.0938 311.755 14.4602C311.94 14.8239 312.032 15.2841 312.032 15.8409V20H311.026V15.9091C311.026 15.3949 310.893 14.9943 310.626 14.7074C310.359 14.4176 309.992 14.2727 309.526 14.2727C309.205 14.2727 308.918 14.3423 308.665 14.4815C308.415 14.6207 308.218 14.8239 308.073 15.0909C307.928 15.358 307.856 15.6818 307.856 16.0625ZM316.512 22.5909C316.026 22.5909 315.608 22.5284 315.259 22.4034C314.909 22.2812 314.618 22.1193 314.385 21.9176C314.155 21.7188 313.972 21.5057 313.836 21.2784L314.637 20.7159C314.728 20.8352 314.843 20.9716 314.982 21.125C315.121 21.2812 315.311 21.4162 315.553 21.5298C315.797 21.6463 316.117 21.7045 316.512 21.7045C317.04 21.7045 317.476 21.5767 317.82 21.321C318.164 21.0653 318.336 20.6648 318.336 20.1193V18.7898H318.25C318.176 18.9091 318.071 19.0568 317.935 19.233C317.801 19.4062 317.608 19.5611 317.355 19.6974C317.105 19.831 316.767 19.8977 316.341 19.8977C315.813 19.8977 315.338 19.7727 314.918 19.5227C314.5 19.2727 314.169 18.9091 313.925 18.4318C313.684 17.9545 313.563 17.375 313.563 16.6932C313.563 16.0227 313.681 15.4389 313.917 14.9418C314.152 14.4418 314.48 14.0554 314.901 13.7827C315.321 13.5071 315.807 13.3693 316.358 13.3693C316.784 13.3693 317.123 13.4403 317.373 13.5824C317.625 13.7216 317.819 13.8807 317.952 14.0597C318.088 14.2358 318.194 14.3807 318.267 14.4943H318.37V13.4545H319.341V20.1875C319.341 20.75 319.213 21.2074 318.958 21.5597C318.705 21.9148 318.364 22.1747 317.935 22.3395C317.509 22.5071 317.034 22.5909 316.512 22.5909ZM316.478 18.9943C316.881 18.9943 317.222 18.902 317.5 18.7173C317.779 18.5327 317.99 18.267 318.135 17.9205C318.28 17.5739 318.353 17.1591 318.353 16.6761C318.353 16.2045 318.282 15.7884 318.14 15.4276C317.998 15.0668 317.787 14.7841 317.509 14.5795C317.23 14.375 316.887 14.2727 316.478 14.2727C316.051 14.2727 315.696 14.3807 315.412 14.5966C315.131 14.8125 314.919 15.1023 314.777 15.4659C314.638 15.8295 314.569 16.233 314.569 16.6761C314.569 17.1307 314.64 17.5327 314.782 17.8821C314.926 18.2287 315.14 18.5014 315.421 18.7003C315.705 18.8963 316.057 18.9943 316.478 18.9943Z" fill="white"/>
<path d="M400.83 13.4545C400.778 13.0227 400.571 12.6875 400.207 12.4489C399.844 12.2102 399.398 12.0909 398.869 12.0909C398.483 12.0909 398.145 12.1534 397.855 12.2784C397.568 12.4034 397.344 12.5753 397.182 12.794C397.023 13.0128 396.943 13.2614 396.943 13.5398C396.943 13.7727 396.999 13.973 397.109 14.1406C397.223 14.3054 397.368 14.4432 397.544 14.554C397.72 14.6619 397.905 14.7514 398.098 14.8224C398.291 14.8906 398.469 14.946 398.631 14.9886L399.517 15.2273C399.744 15.2869 399.997 15.3693 400.276 15.4744C400.557 15.5795 400.825 15.723 401.081 15.9048C401.339 16.0838 401.553 16.3139 401.72 16.5952C401.888 16.8764 401.972 17.2216 401.972 17.6307C401.972 18.1023 401.848 18.5284 401.601 18.9091C401.357 19.2898 400.999 19.5923 400.527 19.8168C400.058 20.0412 399.489 20.1534 398.818 20.1534C398.193 20.1534 397.652 20.0526 397.195 19.8509C396.74 19.6491 396.382 19.3679 396.121 19.0071C395.862 18.6463 395.716 18.2273 395.682 17.75H396.773C396.801 18.0795 396.912 18.3523 397.105 18.5682C397.301 18.7812 397.548 18.9403 397.847 19.0455C398.148 19.1477 398.472 19.1989 398.818 19.1989C399.222 19.1989 399.584 19.1335 399.905 19.0028C400.226 18.8693 400.48 18.6847 400.668 18.4489C400.855 18.2102 400.949 17.9318 400.949 17.6136C400.949 17.3239 400.868 17.0881 400.706 16.9062C400.544 16.7244 400.331 16.5767 400.067 16.4631C399.803 16.3494 399.517 16.25 399.21 16.1648L398.136 15.858C397.455 15.6619 396.915 15.3821 396.517 15.0185C396.119 14.6548 395.92 14.179 395.92 13.5909C395.92 13.1023 396.053 12.6761 396.317 12.3125C396.584 11.946 396.942 11.6619 397.391 11.4602C397.842 11.2557 398.347 11.1534 398.903 11.1534C399.466 11.1534 399.966 11.2543 400.403 11.456C400.841 11.6548 401.188 11.9276 401.443 12.2741C401.702 12.6207 401.838 13.0142 401.852 13.4545H400.83ZM406.317 20.1364C405.686 20.1364 405.142 19.9972 404.685 19.7188C404.23 19.4375 403.88 19.0455 403.632 18.5426C403.388 18.0369 403.266 17.4489 403.266 16.7784C403.266 16.108 403.388 15.517 403.632 15.0057C403.88 14.4915 404.223 14.0909 404.664 13.804C405.107 13.5142 405.624 13.3693 406.215 13.3693C406.556 13.3693 406.892 13.4261 407.225 13.5398C407.557 13.6534 407.86 13.8381 408.132 14.0938C408.405 14.3466 408.623 14.6818 408.784 15.0994C408.946 15.517 409.027 16.0312 409.027 16.642V17.0682H403.982V16.1989H408.005C408.005 15.8295 407.931 15.5 407.783 15.2102C407.638 14.9205 407.431 14.6918 407.161 14.5241C406.894 14.3565 406.578 14.2727 406.215 14.2727C405.814 14.2727 405.468 14.3722 405.175 14.571C404.885 14.767 404.662 15.0227 404.506 15.3381C404.35 15.6534 404.272 15.9915 404.272 16.3523V16.9318C404.272 17.4261 404.357 17.8452 404.527 18.1889C404.701 18.5298 404.941 18.7898 405.248 18.9688C405.554 19.1449 405.911 19.233 406.317 19.233C406.581 19.233 406.82 19.196 407.033 19.1222C407.249 19.0455 407.435 18.9318 407.591 18.7812C407.748 18.6278 407.868 18.4375 407.953 18.2102L408.925 18.483C408.823 18.8125 408.651 19.1023 408.409 19.3523C408.168 19.5994 407.87 19.7926 407.515 19.9318C407.159 20.0682 406.76 20.1364 406.317 20.1364ZM413.216 20.1364C412.603 20.1364 412.074 19.9915 411.631 19.7017C411.188 19.4119 410.847 19.0128 410.608 18.5043C410.37 17.9957 410.25 17.4148 410.25 16.7614C410.25 16.0966 410.373 15.5099 410.617 15.0014C410.864 14.4901 411.208 14.0909 411.648 13.804C412.091 13.5142 412.608 13.3693 413.199 13.3693C413.659 13.3693 414.074 13.4545 414.444 13.625C414.813 13.7955 415.115 14.0341 415.351 14.3409C415.587 14.6477 415.733 15.0057 415.79 15.4148H414.784C414.708 15.1165 414.537 14.8523 414.273 14.6222C414.012 14.3892 413.659 14.2727 413.216 14.2727C412.824 14.2727 412.48 14.375 412.185 14.5795C411.892 14.7812 411.664 15.0668 411.499 15.4361C411.337 15.8026 411.256 16.233 411.256 16.7273C411.256 17.233 411.336 17.6733 411.495 18.0483C411.657 18.4233 411.884 18.7145 412.176 18.9219C412.472 19.1293 412.819 19.233 413.216 19.233C413.478 19.233 413.715 19.1875 413.928 19.0966C414.141 19.0057 414.321 18.875 414.469 18.7045C414.617 18.5341 414.722 18.3295 414.784 18.0909H415.79C415.733 18.4773 415.593 18.8253 415.368 19.1349C415.147 19.4418 414.853 19.6861 414.486 19.8679C414.123 20.0469 413.699 20.1364 413.216 20.1364ZM419.919 20.1364C419.328 20.1364 418.81 19.9957 418.364 19.7145C417.921 19.4332 417.574 19.0398 417.324 18.5341C417.077 18.0284 416.953 17.4375 416.953 16.7614C416.953 16.0795 417.077 15.4844 417.324 14.9759C417.574 14.4673 417.921 14.0724 418.364 13.7912C418.81 13.5099 419.328 13.3693 419.919 13.3693C420.51 13.3693 421.027 13.5099 421.471 13.7912C421.917 14.0724 422.263 14.4673 422.51 14.9759C422.76 15.4844 422.885 16.0795 422.885 16.7614C422.885 17.4375 422.76 18.0284 422.51 18.5341C422.263 19.0398 421.917 19.4332 421.471 19.7145C421.027 19.9957 420.51 20.1364 419.919 20.1364ZM419.919 19.233C420.368 19.233 420.738 19.1179 421.027 18.8878C421.317 18.6577 421.532 18.3551 421.671 17.9801C421.81 17.6051 421.88 17.1989 421.88 16.7614C421.88 16.3239 421.81 15.9162 421.671 15.5384C421.532 15.1605 421.317 14.8551 421.027 14.6222C420.738 14.3892 420.368 14.2727 419.919 14.2727C419.471 14.2727 419.101 14.3892 418.811 14.6222C418.522 14.8551 418.307 15.1605 418.168 15.5384C418.029 15.9162 417.959 16.3239 417.959 16.7614C417.959 17.1989 418.029 17.6051 418.168 17.9801C418.307 18.3551 418.522 18.6577 418.811 18.8878C419.101 19.1179 419.471 19.233 419.919 19.233ZM425.426 16.0625V20H424.42V13.4545H425.392V14.4773H425.477C425.631 14.1449 425.864 13.8778 426.176 13.6761C426.489 13.4716 426.892 13.3693 427.386 13.3693C427.83 13.3693 428.217 13.4602 428.55 13.642C428.882 13.821 429.141 14.0938 429.325 14.4602C429.51 14.8239 429.602 15.2841 429.602 15.8409V20H428.597V15.9091C428.597 15.3949 428.463 14.9943 428.196 14.7074C427.929 14.4176 427.563 14.2727 427.097 14.2727C426.776 14.2727 426.489 14.3423 426.236 14.4815C425.986 14.6207 425.788 14.8239 425.643 15.0909C425.499 15.358 425.426 15.6818 425.426 16.0625ZM433.912 20.1364C433.366 20.1364 432.885 19.9986 432.467 19.723C432.049 19.4446 431.723 19.0526 431.487 18.5469C431.251 18.0384 431.133 17.4375 431.133 16.7443C431.133 16.0568 431.251 15.4602 431.487 14.9545C431.723 14.4489 432.051 14.0582 432.471 13.7827C432.892 13.5071 433.377 13.3693 433.929 13.3693C434.355 13.3693 434.691 13.4403 434.939 13.5824C435.189 13.7216 435.379 13.8807 435.51 14.0597C435.643 14.2358 435.747 14.3807 435.821 14.4943H435.906V11.2727H436.912V20H435.94V18.9943H435.821C435.747 19.1136 435.642 19.2642 435.505 19.446C435.369 19.625 435.174 19.7855 434.922 19.9276C434.669 20.0668 434.332 20.1364 433.912 20.1364ZM434.048 19.233C434.451 19.233 434.792 19.1278 435.071 18.9176C435.349 18.7045 435.561 18.4105 435.706 18.0355C435.85 17.6577 435.923 17.2216 435.923 16.7273C435.923 16.2386 435.852 15.8111 435.71 15.4446C435.568 15.0753 435.358 14.7884 435.079 14.5838C434.801 14.3764 434.457 14.2727 434.048 14.2727C433.622 14.2727 433.267 14.3821 432.983 14.6009C432.701 14.8168 432.49 15.1108 432.348 15.483C432.208 15.8523 432.139 16.267 432.139 16.7273C432.139 17.1932 432.21 17.6165 432.352 17.9972C432.497 18.375 432.71 18.6761 432.991 18.9006C433.275 19.1222 433.627 19.233 434.048 19.233ZM440.819 20.1534C440.404 20.1534 440.028 20.0753 439.69 19.919C439.352 19.7599 439.083 19.5312 438.885 19.233C438.686 18.9318 438.586 18.5682 438.586 18.142C438.586 17.767 438.66 17.4631 438.808 17.2301C438.956 16.9943 439.153 16.8097 439.4 16.6761C439.647 16.5426 439.92 16.4432 440.218 16.3778C440.52 16.3097 440.822 16.2557 441.126 16.2159C441.524 16.1648 441.846 16.1264 442.093 16.1009C442.343 16.0724 442.525 16.0256 442.639 15.9602C442.755 15.8949 442.814 15.7812 442.814 15.6193V15.5852C442.814 15.1648 442.699 14.8381 442.468 14.6051C442.241 14.3722 441.896 14.2557 441.433 14.2557C440.953 14.2557 440.576 14.3608 440.304 14.571C440.031 14.7812 439.839 15.0057 439.728 15.2443L438.774 14.9034C438.944 14.5057 439.172 14.196 439.456 13.9744C439.743 13.75 440.055 13.5937 440.393 13.5057C440.734 13.4148 441.069 13.3693 441.399 13.3693C441.609 13.3693 441.85 13.3949 442.123 13.446C442.399 13.4943 442.664 13.5952 442.92 13.7486C443.179 13.902 443.393 14.1335 443.564 14.4432C443.734 14.7528 443.819 15.1676 443.819 15.6875V20H442.814V19.1136H442.762C442.694 19.2557 442.581 19.4077 442.422 19.5696C442.262 19.7315 442.051 19.8693 441.787 19.983C441.522 20.0966 441.2 20.1534 440.819 20.1534ZM440.973 19.25C441.37 19.25 441.706 19.1719 441.978 19.0156C442.254 18.8594 442.461 18.6577 442.6 18.4105C442.743 18.1634 442.814 17.9034 442.814 17.6307V16.7102C442.771 16.7614 442.677 16.8082 442.532 16.8509C442.39 16.8906 442.225 16.9261 442.038 16.9574C441.853 16.9858 441.673 17.0114 441.497 17.0341C441.324 17.054 441.183 17.071 441.075 17.0852C440.814 17.1193 440.569 17.1747 440.342 17.2514C440.118 17.3253 439.936 17.4375 439.797 17.5881C439.66 17.7358 439.592 17.9375 439.592 18.1932C439.592 18.5426 439.721 18.8068 439.98 18.9858C440.241 19.1619 440.572 19.25 440.973 19.25ZM445.655 20V13.4545H446.626V14.4432H446.695C446.814 14.1193 447.03 13.8565 447.342 13.6548C447.655 13.4531 448.007 13.3523 448.399 13.3523C448.473 13.3523 448.565 13.3537 448.676 13.3565C448.787 13.3594 448.871 13.3636 448.928 13.3693V14.392C448.893 14.3835 448.815 14.3707 448.693 14.3537C448.574 14.3338 448.447 14.3239 448.314 14.3239C447.996 14.3239 447.712 14.3906 447.462 14.5241C447.214 14.6548 447.018 14.8366 446.874 15.0696C446.732 15.2997 446.661 15.5625 446.661 15.858V20H445.655ZM450.967 22.4545C450.796 22.4545 450.644 22.4403 450.511 22.4119C450.377 22.3864 450.285 22.3608 450.234 22.3352L450.489 21.4489C450.734 21.5114 450.95 21.5341 451.137 21.517C451.325 21.5 451.491 21.4162 451.636 21.2656C451.783 21.1179 451.918 20.8778 452.04 20.5455L452.228 20.0341L449.808 13.4545H450.898L452.705 18.6705H452.773L454.58 13.4545H455.671L452.893 20.9545C452.768 21.2926 452.613 21.5724 452.428 21.794C452.244 22.0185 452.029 22.1847 451.785 22.2926C451.543 22.4006 451.271 22.4545 450.967 22.4545Z" fill="black"/>
<path d="M535.08 14H534.023C533.96 13.696 533.851 13.429 533.695 13.1989C533.541 12.9688 533.354 12.7756 533.132 12.6193C532.913 12.4602 532.67 12.3409 532.403 12.2614C532.136 12.1818 531.858 12.142 531.568 12.142C531.04 12.142 530.561 12.2756 530.132 12.5426C529.706 12.8097 529.366 13.2031 529.114 13.723C528.864 14.2429 528.739 14.8807 528.739 15.6364C528.739 16.392 528.864 17.0298 529.114 17.5497C529.366 18.0696 529.706 18.4631 530.132 18.7301C530.561 18.9972 531.04 19.1307 531.568 19.1307C531.858 19.1307 532.136 19.0909 532.403 19.0114C532.67 18.9318 532.913 18.8139 533.132 18.6577C533.354 18.4986 533.541 18.304 533.695 18.0739C533.851 17.8409 533.96 17.5739 534.023 17.2727H535.08C535 17.7187 534.855 18.1179 534.645 18.4702C534.435 18.8224 534.173 19.1222 533.861 19.3693C533.548 19.6136 533.197 19.7997 532.808 19.9276C532.422 20.0554 532.009 20.1193 531.568 20.1193C530.824 20.1193 530.162 19.9375 529.582 19.5739C529.003 19.2102 528.547 18.6932 528.214 18.0227C527.882 17.3523 527.716 16.5568 527.716 15.6364C527.716 14.7159 527.882 13.9205 528.214 13.25C528.547 12.5795 529.003 12.0625 529.582 11.6989C530.162 11.3352 530.824 11.1534 531.568 11.1534C532.009 11.1534 532.422 11.2173 532.808 11.3452C533.197 11.473 533.548 11.6605 533.861 11.9077C534.173 12.152 534.435 12.4503 534.645 12.8026C534.855 13.152 535 13.5511 535.08 14ZM539.31 20.1364C538.719 20.1364 538.201 19.9957 537.755 19.7145C537.311 19.4332 536.965 19.0398 536.715 18.5341C536.468 18.0284 536.344 17.4375 536.344 16.7614C536.344 16.0795 536.468 15.4844 536.715 14.9759C536.965 14.4673 537.311 14.0724 537.755 13.7912C538.201 13.5099 538.719 13.3693 539.31 13.3693C539.901 13.3693 540.418 13.5099 540.861 13.7912C541.307 14.0724 541.654 14.4673 541.901 14.9759C542.151 15.4844 542.276 16.0795 542.276 16.7614C542.276 17.4375 542.151 18.0284 541.901 18.5341C541.654 19.0398 541.307 19.4332 540.861 19.7145C540.418 19.9957 539.901 20.1364 539.31 20.1364ZM539.31 19.233C539.759 19.233 540.128 19.1179 540.418 18.8878C540.708 18.6577 540.922 18.3551 541.061 17.9801C541.201 17.6051 541.27 17.1989 541.27 16.7614C541.27 16.3239 541.201 15.9162 541.061 15.5384C540.922 15.1605 540.708 14.8551 540.418 14.6222C540.128 14.3892 539.759 14.2727 539.31 14.2727C538.861 14.2727 538.492 14.3892 538.202 14.6222C537.912 14.8551 537.698 15.1605 537.559 15.5384C537.419 15.9162 537.35 16.3239 537.35 16.7614C537.35 17.1989 537.419 17.6051 537.559 17.9801C537.698 18.3551 537.912 18.6577 538.202 18.8878C538.492 19.1179 538.861 19.233 539.31 19.233ZM544.817 16.0625V20H543.811V13.4545H544.783V14.4773H544.868C545.021 14.1449 545.254 13.8778 545.567 13.6761C545.879 13.4716 546.283 13.3693 546.777 13.3693C547.22 13.3693 547.608 13.4602 547.94 13.642C548.273 13.821 548.531 14.0938 548.716 14.4602C548.901 14.8239 548.993 15.2841 548.993 15.8409V20H547.987V15.9091C547.987 15.3949 547.854 14.9943 547.587 14.7074C547.32 14.4176 546.953 14.2727 546.487 14.2727C546.166 14.2727 545.879 14.3423 545.626 14.4815C545.376 14.6207 545.179 14.8239 545.034 15.0909C544.889 15.358 544.817 15.6818 544.817 16.0625ZM553.677 13.4545V14.3068H550.285V13.4545H553.677ZM551.274 11.8864H552.279V18.125C552.279 18.4091 552.321 18.6222 552.403 18.7642C552.488 18.9034 552.596 18.9972 552.727 19.0455C552.86 19.0909 553.001 19.1136 553.149 19.1136C553.26 19.1136 553.35 19.108 553.422 19.0966C553.493 19.0824 553.549 19.071 553.592 19.0625L553.797 19.9659C553.728 19.9915 553.633 20.017 553.511 20.0426C553.389 20.071 553.234 20.0852 553.047 20.0852C552.762 20.0852 552.484 20.0241 552.211 19.902C551.941 19.7798 551.717 19.5938 551.538 19.3438C551.362 19.0938 551.274 18.7784 551.274 18.3977V11.8864ZM555.19 20V13.4545H556.162V14.4432H556.23C556.349 14.1193 556.565 13.8565 556.877 13.6548C557.19 13.4531 557.542 13.3523 557.934 13.3523C558.008 13.3523 558.1 13.3537 558.211 13.3565C558.322 13.3594 558.406 13.3636 558.463 13.3693V14.392C558.429 14.3835 558.35 14.3707 558.228 14.3537C558.109 14.3338 557.983 14.3239 557.849 14.3239C557.531 14.3239 557.247 14.3906 556.997 14.5241C556.75 14.6548 556.554 14.8366 556.409 15.0696C556.267 15.2997 556.196 15.5625 556.196 15.858V20H555.19ZM561.581 20.1534C561.166 20.1534 560.79 20.0753 560.452 19.919C560.114 19.7599 559.845 19.5312 559.646 19.233C559.447 18.9318 559.348 18.5682 559.348 18.142C559.348 17.767 559.422 17.4631 559.57 17.2301C559.717 16.9943 559.915 16.8097 560.162 16.6761C560.409 16.5426 560.682 16.4432 560.98 16.3778C561.281 16.3097 561.584 16.2557 561.888 16.2159C562.286 16.1648 562.608 16.1264 562.855 16.1009C563.105 16.0724 563.287 16.0256 563.401 15.9602C563.517 15.8949 563.575 15.7812 563.575 15.6193V15.5852C563.575 15.1648 563.46 14.8381 563.23 14.6051C563.003 14.3722 562.658 14.2557 562.195 14.2557C561.714 14.2557 561.338 14.3608 561.065 14.571C560.793 14.7812 560.601 15.0057 560.49 15.2443L559.536 14.9034C559.706 14.5057 559.933 14.196 560.217 13.9744C560.504 13.75 560.817 13.5937 561.155 13.5057C561.496 13.4148 561.831 13.3693 562.161 13.3693C562.371 13.3693 562.612 13.3949 562.885 13.446C563.161 13.4943 563.426 13.5952 563.682 13.7486C563.94 13.902 564.155 14.1335 564.325 14.4432C564.496 14.7528 564.581 15.1676 564.581 15.6875V20H563.575V19.1136H563.524C563.456 19.2557 563.342 19.4077 563.183 19.5696C563.024 19.7315 562.813 19.8693 562.548 19.983C562.284 20.0966 561.962 20.1534 561.581 20.1534ZM561.734 19.25C562.132 19.25 562.467 19.1719 562.74 19.0156C563.016 18.8594 563.223 18.6577 563.362 18.4105C563.504 18.1634 563.575 17.9034 563.575 17.6307V16.7102C563.533 16.7614 563.439 16.8082 563.294 16.8509C563.152 16.8906 562.987 16.9261 562.8 16.9574C562.615 16.9858 562.435 17.0114 562.259 17.0341C562.085 17.054 561.945 17.071 561.837 17.0852C561.575 17.1193 561.331 17.1747 561.104 17.2514C560.879 17.3253 560.697 17.4375 560.558 17.5881C560.422 17.7358 560.354 17.9375 560.354 18.1932C560.354 18.5426 560.483 18.8068 560.741 18.9858C561.003 19.1619 561.334 19.25 561.734 19.25ZM571.053 14.9205L570.15 15.1761C570.093 15.0256 570.009 14.8793 569.898 14.7372C569.79 14.5923 569.642 14.473 569.455 14.3793C569.267 14.2855 569.027 14.2386 568.735 14.2386C568.334 14.2386 568 14.331 567.733 14.5156C567.469 14.6974 567.337 14.929 567.337 15.2102C567.337 15.4602 567.428 15.6577 567.61 15.8026C567.792 15.9474 568.076 16.0682 568.462 16.1648L569.434 16.4034C570.019 16.5455 570.455 16.7628 570.742 17.0554C571.029 17.3452 571.172 17.7187 571.172 18.1761C571.172 18.5511 571.064 18.8864 570.848 19.1818C570.635 19.4773 570.337 19.7102 569.953 19.8807C569.57 20.0511 569.124 20.1364 568.615 20.1364C567.948 20.1364 567.395 19.9915 566.958 19.7017C566.52 19.4119 566.243 18.9886 566.127 18.4318L567.081 18.1932C567.172 18.5455 567.344 18.8097 567.597 18.9858C567.853 19.1619 568.186 19.25 568.598 19.25C569.067 19.25 569.439 19.1506 569.715 18.9517C569.993 18.75 570.132 18.5085 570.132 18.2273C570.132 18 570.053 17.8097 569.894 17.6562C569.735 17.5 569.49 17.3835 569.161 17.3068L568.07 17.0511C567.471 16.9091 567.03 16.6889 566.749 16.3906C566.471 16.0895 566.331 15.7131 566.331 15.2614C566.331 14.892 566.435 14.5653 566.642 14.2812C566.853 13.9972 567.138 13.7741 567.499 13.6122C567.863 13.4503 568.275 13.3693 568.735 13.3693C569.382 13.3693 569.891 13.5114 570.26 13.7955C570.632 14.0795 570.897 14.4545 571.053 14.9205ZM575.533 13.4545V14.3068H572.141V13.4545H575.533ZM573.129 11.8864H574.135V18.125C574.135 18.4091 574.176 18.6222 574.259 18.7642C574.344 18.9034 574.452 18.9972 574.582 19.0455C574.716 19.0909 574.857 19.1136 575.004 19.1136C575.115 19.1136 575.206 19.108 575.277 19.0966C575.348 19.0824 575.405 19.071 575.447 19.0625L575.652 19.9659C575.584 19.9915 575.489 20.017 575.366 20.0426C575.244 20.071 575.089 20.0852 574.902 20.0852C574.618 20.0852 574.339 20.0241 574.067 19.902C573.797 19.7798 573.572 19.5938 573.393 19.3438C573.217 19.0938 573.129 18.7784 573.129 18.3977V11.8864Z" fill="white"/>
<path d="M668.58 12.2102V11.2727H675.125V12.2102H672.381V20H671.324V12.2102H668.58ZM678.415 20.1364C677.784 20.1364 677.24 19.9972 676.783 19.7188C676.328 19.4375 675.977 19.0455 675.73 18.5426C675.486 18.0369 675.364 17.4489 675.364 16.7784C675.364 16.108 675.486 15.517 675.73 15.0057C675.977 14.4915 676.321 14.0909 676.761 13.804C677.205 13.5142 677.722 13.3693 678.312 13.3693C678.653 13.3693 678.99 13.4261 679.322 13.5398C679.655 13.6534 679.957 13.8381 680.23 14.0938C680.503 14.3466 680.72 14.6818 680.882 15.0994C681.044 15.517 681.125 16.0312 681.125 16.642V17.0682H676.08V16.1989H680.102C680.102 15.8295 680.028 15.5 679.881 15.2102C679.736 14.9205 679.528 14.6918 679.259 14.5241C678.991 14.3565 678.676 14.2727 678.312 14.2727C677.912 14.2727 677.565 14.3722 677.273 14.571C676.983 14.767 676.76 15.0227 676.604 15.3381C676.447 15.6534 676.369 15.9915 676.369 16.3523V16.9318C676.369 17.4261 676.455 17.8452 676.625 18.1889C676.798 18.5298 677.038 18.7898 677.345 18.9688C677.652 19.1449 678.009 19.233 678.415 19.233C678.679 19.233 678.918 19.196 679.131 19.1222C679.347 19.0455 679.533 18.9318 679.689 18.7812C679.845 18.6278 679.966 18.4375 680.051 18.2102L681.023 18.483C680.92 18.8125 680.749 19.1023 680.507 19.3523C680.266 19.5994 679.967 19.7926 679.612 19.9318C679.257 20.0682 678.858 20.1364 678.415 20.1364ZM683.229 13.4545L684.797 16.1307L686.365 13.4545H687.525L685.411 16.7273L687.525 20H686.365L684.797 17.4602L683.229 20H682.07L684.15 16.7273L682.07 13.4545H683.229ZM691.806 13.4545V14.3068H688.414V13.4545H691.806ZM689.403 11.8864H690.408V18.125C690.408 18.4091 690.45 18.6222 690.532 18.7642C690.617 18.9034 690.725 18.9972 690.856 19.0455C690.989 19.0909 691.13 19.1136 691.278 19.1136C691.388 19.1136 691.479 19.108 691.55 19.0966C691.621 19.0824 691.678 19.071 691.721 19.0625L691.925 19.9659C691.857 19.9915 691.762 20.017 691.64 20.0426C691.518 20.071 691.363 20.0852 691.175 20.0852C690.891 20.0852 690.613 20.0241 690.34 19.902C690.07 19.7798 689.846 19.5938 689.667 19.3438C689.491 19.0938 689.403 18.7784 689.403 18.3977V11.8864Z" fill="black"/>
</svg>
